<svg xmlns="http://www.w3.org/2000/svg" width="900" height="1240" viewBox="0 0 900 1240" fill="none">
  <defs>
    <linearGradient id="bg" x1="0" y1="0" x2="0.2" y2="1">
      <stop offset="0" stop-color="#FBF3DE"/><stop offset="1" stop-color="#EAD5A0"/>
    </linearGradient>
    <linearGradient id="pg" x1="0" y1="0" x2="1" y2="1">
      <stop offset="0" stop-color="#EBCF86"/><stop offset="0.55" stop-color="#C19A3E"/><stop offset="1" stop-color="#8A6D22"/>
    </linearGradient>
    <linearGradient id="pg2" x1="0" y1="0" x2="1" y2="1">
      <stop offset="0" stop-color="#D9B85A"/><stop offset="1" stop-color="#9C7C2C"/>
    </linearGradient>
  </defs>

  <rect width="900" height="1240" fill="url(#bg)"/>
  <circle cx="470" cy="520" r="350" fill="none" stroke="#C19A3E" stroke-opacity="0.20" stroke-width="2"/>

  <!-- Barakaly bloom mark -->
  <g transform="translate(470,520) scale(12)">
    <g fill="url(#pg)">
      <path d="M0 -3 C -7 -11 -7 -20 0 -23 C 7 -20 7 -11 0 -3 Z"/>
      <g transform="rotate(45)"><path d="M0 -3 C -7 -11 -7 -20 0 -23 C 7 -20 7 -11 0 -3 Z"/></g>
      <g transform="rotate(90)"><path d="M0 -3 C -7 -11 -7 -20 0 -23 C 7 -20 7 -11 0 -3 Z"/></g>
      <g transform="rotate(135)"><path d="M0 -3 C -7 -11 -7 -20 0 -23 C 7 -20 7 -11 0 -3 Z"/></g>
      <g transform="rotate(180)"><path d="M0 -3 C -7 -11 -7 -20 0 -23 C 7 -20 7 -11 0 -3 Z"/></g>
      <g transform="rotate(225)"><path d="M0 -3 C -7 -11 -7 -20 0 -23 C 7 -20 7 -11 0 -3 Z"/></g>
      <g transform="rotate(270)"><path d="M0 -3 C -7 -11 -7 -20 0 -23 C 7 -20 7 -11 0 -3 Z"/></g>
      <g transform="rotate(315)"><path d="M0 -3 C -7 -11 -7 -20 0 -23 C 7 -20 7 -11 0 -3 Z"/></g>
    </g>
    <g fill="url(#pg2)">
      <g transform="rotate(22)"><path d="M0 -2 C -4.5 -7 -4.5 -13 0 -15 C 4.5 -13 4.5 -7 0 -2 Z"/></g>
      <g transform="rotate(82)"><path d="M0 -2 C -4.5 -7 -4.5 -13 0 -15 C 4.5 -13 4.5 -7 0 -2 Z"/></g>
      <g transform="rotate(142)"><path d="M0 -2 C -4.5 -7 -4.5 -13 0 -15 C 4.5 -13 4.5 -7 0 -2 Z"/></g>
      <g transform="rotate(202)"><path d="M0 -2 C -4.5 -7 -4.5 -13 0 -15 C 4.5 -13 4.5 -7 0 -2 Z"/></g>
      <g transform="rotate(262)"><path d="M0 -2 C -4.5 -7 -4.5 -13 0 -15 C 4.5 -13 4.5 -7 0 -2 Z"/></g>
      <g transform="rotate(322)"><path d="M0 -2 C -4.5 -7 -4.5 -13 0 -15 C 4.5 -13 4.5 -7 0 -2 Z"/></g>
    </g>
    <circle r="5" fill="#FBF3DE"/><circle r="5" fill="none" stroke="#9C7C2C" stroke-width="0.7"/>
  </g>

  <g fill="#C19A3E" fill-opacity="0.18">
    <path d="M180 240 c12 28, 24 40, 52 52 c-28 12, -40 24, -52 52 c-12 -28, -24 -40, -52 -52 c28 -12, 40 -24, 52 -52 Z"/>
    <path d="M760 880 c9 21, 18 30, 39 39 c-21 9, -30 18, -39 39 c-9 -21, -18 -30, -39 -39 c21 -9, 30 -18, 39 -39 Z"/>
  </g>
</svg>
