<svg xmlns="http://www.w3.org/2000/svg" width="40" height="40" viewBox="0 0 40 40" fill="none">
  <defs>
    <linearGradient id="bki_g" x1="0" y1="0" x2="1" y2="1">
      <stop offset="0" stop-color="#EBCF86"/><stop offset="0.55" stop-color="#C19A3E"/><stop offset="1" stop-color="#8A6D22"/>
    </linearGradient>
    <linearGradient id="bki_g2" x1="0" y1="0" x2="1" y2="1">
      <stop offset="0" stop-color="#D9B85A"/><stop offset="1" stop-color="#9C7C2C"/>
    </linearGradient>
  </defs>
  <g transform="translate(20,20) scale(0.8)">
    <g fill="url(#bki_g)">
      <path d="M0 -3 C -7 -11 -7 -20 0 -23 C 7 -20 7 -11 0 -3 Z"/>
      <g transform="rotate(45)"><path d="M0 -3 C -7 -11 -7 -20 0 -23 C 7 -20 7 -11 0 -3 Z"/></g>
      <g transform="rotate(90)"><path d="M0 -3 C -7 -11 -7 -20 0 -23 C 7 -20 7 -11 0 -3 Z"/></g>
      <g transform="rotate(135)"><path d="M0 -3 C -7 -11 -7 -20 0 -23 C 7 -20 7 -11 0 -3 Z"/></g>
      <g transform="rotate(180)"><path d="M0 -3 C -7 -11 -7 -20 0 -23 C 7 -20 7 -11 0 -3 Z"/></g>
      <g transform="rotate(225)"><path d="M0 -3 C -7 -11 -7 -20 0 -23 C 7 -20 7 -11 0 -3 Z"/></g>
      <g transform="rotate(270)"><path d="M0 -3 C -7 -11 -7 -20 0 -23 C 7 -20 7 -11 0 -3 Z"/></g>
      <g transform="rotate(315)"><path d="M0 -3 C -7 -11 -7 -20 0 -23 C 7 -20 7 -11 0 -3 Z"/></g>
    </g>
    <g fill="url(#bki_g2)">
      <g transform="rotate(22)"><path d="M0 -2 C -4.5 -7 -4.5 -13 0 -15 C 4.5 -13 4.5 -7 0 -2 Z"/></g>
      <g transform="rotate(82)"><path d="M0 -2 C -4.5 -7 -4.5 -13 0 -15 C 4.5 -13 4.5 -7 0 -2 Z"/></g>
      <g transform="rotate(142)"><path d="M0 -2 C -4.5 -7 -4.5 -13 0 -15 C 4.5 -13 4.5 -7 0 -2 Z"/></g>
      <g transform="rotate(202)"><path d="M0 -2 C -4.5 -7 -4.5 -13 0 -15 C 4.5 -13 4.5 -7 0 -2 Z"/></g>
      <g transform="rotate(262)"><path d="M0 -2 C -4.5 -7 -4.5 -13 0 -15 C 4.5 -13 4.5 -7 0 -2 Z"/></g>
      <g transform="rotate(322)"><path d="M0 -2 C -4.5 -7 -4.5 -13 0 -15 C 4.5 -13 4.5 -7 0 -2 Z"/></g>
    </g>
    <circle r="5" fill="#FBF3DE"/><circle r="5" fill="none" stroke="#9C7C2C" stroke-width="0.7"/>
  </g>
</svg>
