<svg xmlns="http://www.w3.org/2000/svg" width="210" height="44" viewBox="0 0 210 44" fill="none">
  <defs>
    <linearGradient id="bk_g" x1="0" y1="0" x2="1" y2="1">
      <stop offset="0" stop-color="#EBCF86"/><stop offset="0.55" stop-color="#C19A3E"/><stop offset="1" stop-color="#8A6D22"/>
    </linearGradient>
    <linearGradient id="bk_g2" x1="0" y1="0" x2="1" y2="1">
      <stop offset="0" stop-color="#D9B85A"/><stop offset="1" stop-color="#9C7C2C"/>
    </linearGradient>
  </defs>
  <!-- bloom mark (beauty motif) -->
  <g transform="translate(22,22) scale(0.84)">
    <g fill="url(#bk_g)">
      <path d="M0 -3 C -7 -11 -7 -20 0 -23 C 7 -20 7 -11 0 -3 Z"/>
      <g transform="rotate(45)"><path d="M0 -3 C -7 -11 -7 -20 0 -23 C 7 -20 7 -11 0 -3 Z"/></g>
      <g transform="rotate(90)"><path d="M0 -3 C -7 -11 -7 -20 0 -23 C 7 -20 7 -11 0 -3 Z"/></g>
      <g transform="rotate(135)"><path d="M0 -3 C -7 -11 -7 -20 0 -23 C 7 -20 7 -11 0 -3 Z"/></g>
      <g transform="rotate(180)"><path d="M0 -3 C -7 -11 -7 -20 0 -23 C 7 -20 7 -11 0 -3 Z"/></g>
      <g transform="rotate(225)"><path d="M0 -3 C -7 -11 -7 -20 0 -23 C 7 -20 7 -11 0 -3 Z"/></g>
      <g transform="rotate(270)"><path d="M0 -3 C -7 -11 -7 -20 0 -23 C 7 -20 7 -11 0 -3 Z"/></g>
      <g transform="rotate(315)"><path d="M0 -3 C -7 -11 -7 -20 0 -23 C 7 -20 7 -11 0 -3 Z"/></g>
    </g>
    <g fill="url(#bk_g2)">
      <g transform="rotate(22)"><path d="M0 -2 C -4.5 -7 -4.5 -13 0 -15 C 4.5 -13 4.5 -7 0 -2 Z"/></g>
      <g transform="rotate(82)"><path d="M0 -2 C -4.5 -7 -4.5 -13 0 -15 C 4.5 -13 4.5 -7 0 -2 Z"/></g>
      <g transform="rotate(142)"><path d="M0 -2 C -4.5 -7 -4.5 -13 0 -15 C 4.5 -13 4.5 -7 0 -2 Z"/></g>
      <g transform="rotate(202)"><path d="M0 -2 C -4.5 -7 -4.5 -13 0 -15 C 4.5 -13 4.5 -7 0 -2 Z"/></g>
      <g transform="rotate(262)"><path d="M0 -2 C -4.5 -7 -4.5 -13 0 -15 C 4.5 -13 4.5 -7 0 -2 Z"/></g>
      <g transform="rotate(322)"><path d="M0 -2 C -4.5 -7 -4.5 -13 0 -15 C 4.5 -13 4.5 -7 0 -2 Z"/></g>
    </g>
    <circle r="5" fill="#FBF3DE"/><circle r="5" fill="none" stroke="#9C7C2C" stroke-width="0.7"/>
  </g>
  <text x="50" y="29" font-family="Fraunces, Georgia, 'Times New Roman', serif"
        font-size="22" font-weight="600" letter-spacing="-0.3" fill="#1A1714">Barakaly<tspan fill="#C19A3E">.</tspan></text>
</svg>
