<svg xmlns="http://www.w3.org/2000/svg" width="176" height="36" viewBox="0 0 176 36" fill="none">
  <!-- gold rounded-square mark + white 4-petal bloom (beauty motif) -->
  <rect x="2" y="4" width="28" height="28" rx="9" fill="#C19A3E"/>
  <g transform="translate(16,18)" fill="none" stroke="#ffffff" stroke-width="1.6" stroke-linecap="round" stroke-linejoin="round">
    <path d="M0 -7 C 2.6 -4.4, 2.6 -2.6, 0 0 C -2.6 -2.6, -2.6 -4.4, 0 -7 Z"/>
    <path d="M0 7 C 2.6 4.4, 2.6 2.6, 0 0 C -2.6 2.6, -2.6 4.4, 0 7 Z"/>
    <path d="M-7 0 C -4.4 2.6, -2.6 2.6, 0 0 C -2.6 -2.6, -4.4 -2.6, -7 0 Z"/>
    <path d="M7 0 C 4.4 2.6, 2.6 2.6, 0 0 C 2.6 -2.6, 4.4 -2.6, 7 0 Z"/>
    <circle cx="0" cy="0" r="1.2" fill="#ffffff" stroke="none"/>
  </g>
  <!-- wordmark (system serif inside SVG; mirrors the Fraunces look) -->
  <text x="40" y="24.5" font-family="Georgia, 'Times New Roman', serif"
        font-size="21" font-weight="600" letter-spacing="-0.3" fill="#1A1714">Chiroyli<tspan fill="#C19A3E">.</tspan></text>
</svg>
