<svg xmlns="http://www.w3.org/2000/svg" width="32" height="32" viewBox="0 0 32 32" fill="none">
  <rect x="2" y="2" width="28" height="28" rx="9" fill="#C19A3E"/>
  <g transform="translate(16,16)" fill="none" stroke="#ffffff" stroke-width="1.6" stroke-linecap="round" stroke-linejoin="round">
    <path d="M0 -7 C 2.6 -4.4, 2.6 -2.6, 0 0 C -2.6 -2.6, -2.6 -4.4, 0 -7 Z"/>
    <path d="M0 7 C 2.6 4.4, 2.6 2.6, 0 0 C -2.6 2.6, -2.6 4.4, 0 7 Z"/>
    <path d="M-7 0 C -4.4 2.6, -2.6 2.6, 0 0 C -2.6 -2.6, -4.4 -2.6, -7 0 Z"/>
    <path d="M7 0 C 4.4 2.6, 2.6 2.6, 0 0 C 2.6 -2.6, 4.4 -2.6, 7 0 Z"/>
    <circle cx="0" cy="0" r="1.2" fill="#ffffff" stroke="none"/>
  </g>
</svg>
