<svg xmlns="http://www.w3.org/2000/svg" width="40" height="40" viewBox="0 0 40 40" fill="none">
  <defs>
    <linearGradient id="bgoldi" x1="0" y1="0" x2="1" y2="1">
      <stop offset="0" stop-color="#EBCF86"/>
      <stop offset="0.5" stop-color="#C19A3E"/>
      <stop offset="1" stop-color="#8A6D22"/>
    </linearGradient>
    <clipPath id="bdisci"><circle cx="20" cy="20" r="18"/></clipPath>
  </defs>
  <circle cx="20" cy="20" r="18" fill="url(#bgoldi)"/>
  <g clip-path="url(#bdisci)">
    <path fill="#FBF7EE" d="M2 2 H22
      C 19.4 5.6, 17.6 8.4, 17.4 11.4
      C 17.3 13.2, 15.1 13.9, 15.4 15.4
      C 15.6 16.5, 17.0 16.6, 16.7 17.6
      C 16.4 18.7, 17.3 19.0, 17.0 20.1
      C 16.7 21.4, 18.2 22.6, 19.4 23.3
      C 21.2 24.4, 21.8 26.2, 21.8 28.6
      L 21.8 42 H2 Z"/>
    <path fill="none" stroke="#8A6D22" stroke-width="1.4" stroke-linecap="round"
      d="M24 5 C 31 12, 31 24, 25.5 33"/>
    <path fill="none" stroke="#A07E2C" stroke-width="1.2" stroke-linecap="round"
      d="M22 7 C 27.5 13, 27.5 23, 23.5 31"/>
  </g>
  <circle cx="20" cy="20" r="18" fill="none" stroke="#8A6D22" stroke-width="0.8" opacity="0.45"/>
</svg>
